<?xml version="1.0" encoding="UTF-8" standalone="no"?>
<!DOCTYPE svg PUBLIC "-//W3C//DTD SVG 1.1//EN" "http://www.w3.org/Graphics/SVG/1.1/DTD/svg11.dtd">
<svg width="100%" height="100%" viewBox="0 0 139 139" version="1.1" xmlns="http://www.w3.org/2000/svg" xmlns:xlink="http://www.w3.org/1999/xlink" xml:space="preserve" xmlns:serif="http://www.serif.com/" style="fill: #92d2ff">
    <g transform="matrix(1,0,0,1,-942.607,-244.222)">
        <g id="dodge">
            <g id="border" transform="matrix(1,0,0,1,312,-384.765)">
                <path d="M680.781,651.97L700.008,632.743L719.235,651.97" style="fill:none;stroke:#92d2ff;stroke-width:4.17px;"/>
                <g transform="matrix(6.12323e-17,1,-1,6.12323e-17,1398.4,-1.61976)">
                    <path d="M680.781,651.97L700.008,632.743L719.235,651.97" style="fill:none;stroke:#92d2ff;stroke-width:4.17px;"/>
                </g>
                <g transform="matrix(-1,1.22465e-16,-1.22465e-16,-1,1400.02,1396.78)">
                    <path d="M680.781,651.97L700.008,632.743L719.235,651.97" style="fill:none;stroke:#92d2ff;stroke-width:4.17px;"/>
                </g>
                <g transform="matrix(6.12323e-17,-1,1,6.12323e-17,1.61976,1398.4)">
                    <path d="M680.781,651.97L700.008,632.743L719.235,651.97" style="fill:none;stroke:#92d2ff;stroke-width:4.17px;"/>
                </g>
                <g transform="matrix(0.277399,0,0,0.277399,576.703,514.873)">
                    <rect x="277.174" y="494.224" width="334.667" height="334.667" style="fill:none;stroke:#92d2ff;stroke-width:15.02px;"/>
                </g>
            </g>
            <g id="wind" transform="matrix(0.110922,0,0,0.110922,1012.01,313.623)">
                <g transform="matrix(1,0,0,1,-256,-256)">
                    <clipPath id="_clip1">
                        <rect x="0" y="0" width="512" height="512"/>
                    </clipPath>
                    <g clip-path="url(#_clip1)">
                        <path d="M156.7,256L16,256C7.2,256 0,263.2 0,272L0,304C0,312.8 7.2,320 16,320L158.2,320C174.1,320 189,330.9 191.6,346.6C194.9,366.6 179.5,384 160,384C145.9,384 133.9,374.8 129.6,362.1C127.5,355.8 121,352 114.4,352L81.6,352C71.8,352 63.9,360.8 65.7,370.4C74.3,414.5 113.3,448 159.9,448C217,448 262.6,397.9 255.1,339.4C249,291 205.4,256 156.7,256ZM16,224L352,224C411.7,224 458.8,169.2 445.8,107.3C438.2,71.1 408.9,41.8 372.7,34.2C317.3,22.6 267.6,59.1 257.8,109.7C255.9,119.3 263.9,128 273.6,128L306.4,128C313.1,128 319.5,124.2 321.6,117.9C325.9,105.2 337.9,96 352,96C371.4,96 386.9,113.4 383.6,133.4C381,149.1 366.2,160 350.2,160L16,160C7.2,160 0,167.2 0,176L0,208C0,216.8 7.2,224 16,224ZM400,256L243.7,256C263,272.6 276.9,294.8 283.5,320L400,320C426.5,320 448,341.5 448,368C448,394.5 426.5,416 400,416C382.1,416 366.7,406.1 358.4,391.6C355.5,386.6 349.7,384 343.9,384L310.1,384C299.2,384 291.1,394.8 294.8,405.1C312.6,455.7 365.3,489.9 424.2,477.4C465.4,468.7 499.3,435.8 508.9,394.7C526,321.5 470.5,256 400,256Z" style="fill-rule:nonzero;"/>
                    </g>
                </g>
            </g>
        </g>
    </g>
</svg>
