<?xml version="1.0" encoding="UTF-8" standalone="no"?>
<!DOCTYPE svg PUBLIC "-//W3C//DTD SVG 1.1//EN" "http://www.w3.org/Graphics/SVG/1.1/DTD/svg11.dtd">
<svg width="100%" height="100%" viewBox="0 0 139 139" version="1.1" xmlns="http://www.w3.org/2000/svg" xmlns:xlink="http://www.w3.org/1999/xlink" xml:space="preserve" xmlns:serif="http://www.serif.com/" style="fill: #92d2ff;">
    <g transform="matrix(1,0,0,1,-1125.61,-424.007)">
        <g id="block" transform="matrix(1,0,0,1,0.478221,4.29894)">
            <g id="border" transform="matrix(1,0,0,1,494.522,-209.28)">
                <path d="M680.781,651.97L700.008,632.743L719.235,651.97" style="fill:none;stroke:#92d2ff;stroke-width:4.17px;"/>
                <g transform="matrix(6.12323e-17,1,-1,6.12323e-17,1398.4,-1.61976)">
                    <path d="M680.781,651.97L700.008,632.743L719.235,651.97" style="fill:none;stroke:#92d2ff;stroke-width:4.17px;"/>
                </g>
                <g transform="matrix(-1,1.22465e-16,-1.22465e-16,-1,1400.02,1396.78)">
                    <path d="M680.781,651.97L700.008,632.743L719.235,651.97" style="fill:none;stroke:#92d2ff;stroke-width:4.17px;"/>
                </g>
                <g transform="matrix(6.12323e-17,-1,1,6.12323e-17,1.61976,1398.4)">
                    <path d="M680.781,651.97L700.008,632.743L719.235,651.97" style="fill:none;stroke:#92d2ff;stroke-width:4.17px;"/>
                </g>
                <g transform="matrix(0.277399,0,0,0.277399,576.703,514.873)">
                    <rect x="277.174" y="494.224" width="334.667" height="334.667" style="fill:none;stroke:#92d2ff;stroke-width:15.02px;"/>
                </g>
            </g>
            <g id="shield-alt" transform="matrix(0.109217,0,0,0.109217,1194.53,489.109)">
                <g transform="matrix(1,0,0,1,-256,-256)">
                    <path d="M256,409.6L256,100L113.1,159.5C121.5,275.7 178.3,362.1 256,409.6ZM466.5,83.7L274.5,3.7C262.693,-1.198 249.407,-1.198 237.6,3.7L45.6,83.7C27.7,91.1 16,108.6 16,128C16,326.5 130.5,463.7 237.5,508.3C249.3,513.2 262.6,513.2 274.4,508.3C360.1,472.6 496,349.3 496,128C496,108.6 484.3,91.1 466.5,83.7ZM256,464C158.5,423.4 64,297.3 64,128L256,48L448,128C448,301.8 349.6,425 256,464Z" style="fill-rule:nonzero;"/>
                </g>
            </g>
        </g>
    </g>
</svg>
