<?xml version="1.0" encoding="UTF-8" standalone="no"?>
<!DOCTYPE svg PUBLIC "-//W3C//DTD SVG 1.1//EN" "http://www.w3.org/Graphics/SVG/1.1/DTD/svg11.dtd">
<svg width="100%" height="100%" viewBox="0 0 139 139" version="1.1" xmlns="http://www.w3.org/2000/svg" xmlns:xlink="http://www.w3.org/1999/xlink" xml:space="preserve" xmlns:serif="http://www.serif.com/" style="fill: #92d2ff">
    <g transform="matrix(1,0,0,1,-759.607,-246.321)">
        <g id="agility">
            <g id="border" transform="matrix(1,0,0,1,129,-382.667)">
                <path d="M680.781,651.97L700.008,632.743L719.235,651.97" style="fill:none;stroke:#92d2ff;stroke-width:4.17px;"/>
                <g transform="matrix(6.12323e-17,1,-1,6.12323e-17,1398.4,-1.61976)">
                    <path d="M680.781,651.97L700.008,632.743L719.235,651.97" style="fill:none;stroke:#92d2ff;stroke-width:4.17px;"/>
                </g>
                <g transform="matrix(-1,1.22465e-16,-1.22465e-16,-1,1400.02,1396.78)">
                    <path d="M680.781,651.97L700.008,632.743L719.235,651.97" style="fill:none;stroke:#92d2ff;stroke-width:4.17px;"/>
                </g>
                <g transform="matrix(6.12323e-17,-1,1,6.12323e-17,1.61976,1398.4)">
                    <path d="M680.781,651.97L700.008,632.743L719.235,651.97" style="fill:none;stroke:#92d2ff;stroke-width:4.17px;"/>
                </g>
                <g transform="matrix(0.277399,0,0,0.277399,576.703,514.873)">
                    <rect x="277.174" y="494.224" width="334.667" height="334.667" style="fill:none;stroke:#92d2ff;stroke-width:15.02px;"/>
                </g>
            </g>
            <g id="feather-alt" transform="matrix(0.103268,0,0,0.103268,829.008,315.722)">
                <g transform="matrix(1,0,0,1,-256,-256)">
                    <path d="M512,0C460.22,3.56 96.44,38.2 71.01,287.61C67.92,314.27 66.17,341.05 65.02,367.85L243.89,189.16C250.14,182.91 260.29,182.91 266.54,189.16C272.79,195.41 272.79,205.54 266.54,211.79L7.04,471.03C-2.34,480.4 -2.34,495.6 7.04,504.97C16.42,514.34 31.63,514.34 41.02,504.97L98.15,447.9C140.24,447.76 182.3,445.37 224.11,440.54C277.59,435.1 321.13,414.07 356.69,384L255.74,384L402.53,335.12C413.78,320.23 423.9,304.41 432.98,288L351.84,288L458.38,234.79C500.29,132.86 510.19,26.26 512,0Z" style="fill-rule:nonzero;"/>
                </g>
            </g>
        </g>
    </g>
</svg>
