<?xml version="1.0" encoding="UTF-8" standalone="no"?>
<!DOCTYPE svg PUBLIC "-//W3C//DTD SVG 1.1//EN" "http://www.w3.org/Graphics/SVG/1.1/DTD/svg11.dtd">
<svg width="100%" height="100%" viewBox="0 0 139 139" version="1.1" xmlns="http://www.w3.org/2000/svg" xmlns:xlink="http://www.w3.org/1999/xlink" xml:space="preserve" xmlns:serif="http://www.serif.com/" style="fill: #92d2ff">
    <g transform="matrix(1,0,0,1,-519.941,-246.321)">
        <g id="energy">
            <g id="border" transform="matrix(1,0,0,1,-110.667,-382.667)">
                <path d="M680.781,651.97L700.008,632.743L719.235,651.97" style="fill:none;stroke:#92d2ff;stroke-width:4.17px;"/>
                <g transform="matrix(6.12323e-17,1,-1,6.12323e-17,1398.4,-1.61976)">
                    <path d="M680.781,651.97L700.008,632.743L719.235,651.97" style="fill:none;stroke:#92d2ff;stroke-width:4.17px;"/>
                </g>
                <g transform="matrix(-1,1.22465e-16,-1.22465e-16,-1,1400.02,1396.78)">
                    <path d="M680.781,651.97L700.008,632.743L719.235,651.97" style="fill:none;stroke:#92d2ff;stroke-width:4.17px;"/>
                </g>
                <g transform="matrix(6.12323e-17,-1,1,6.12323e-17,1.61976,1398.4)">
                    <path d="M680.781,651.97L700.008,632.743L719.235,651.97" style="fill:none;stroke:#92d2ff;stroke-width:4.17px;"/>
                </g>
                <g transform="matrix(0.277399,0,0,0.277399,576.703,514.873)">
                    <rect x="277.174" y="494.224" width="334.667" height="334.667" style="fill:none;stroke:#92d2ff;stroke-width:15.02px;"/>
                </g>
            </g>
            <g id="bolt" transform="matrix(0.116355,0,0,0.116355,589.342,315.722)">
                <g transform="matrix(1,0,0,1,-160,-256)">
                    <clipPath id="_clip1">
                        <rect x="0" y="0" width="320" height="512"/>
                    </clipPath>
                    <g clip-path="url(#_clip1)">
                        <path d="M296,160L180.6,160L223.2,30.2C227.2,15 215.7,0 200,0L56,0C44,0 33.8,8.9 32.2,20.8L0.2,260.8C-1.7,275.2 9.5,288 24,288L142.7,288L96.6,482.5C93,497.7 104.6,512 119.9,512C128.3,512 136.3,507.6 140.7,500L316.7,196C326,180.1 314.5,160 296,160Z" style="fill-rule:nonzero;"/>
                    </g>
                </g>
            </g>
        </g>
    </g>
</svg>
