<?xml version="1.0" encoding="UTF-8" standalone="no"?>
<!DOCTYPE svg PUBLIC "-//W3C//DTD SVG 1.1//EN" "http://www.w3.org/Graphics/SVG/1.1/DTD/svg11.dtd">
<svg width="100%" height="100%" viewBox="0 0 139 139" version="1.1" xmlns="http://www.w3.org/2000/svg" xmlns:xlink="http://www.w3.org/1999/xlink" xml:space="preserve" xmlns:serif="http://www.serif.com/" style="fill: #92d2ff;">
    <g transform="matrix(1,0,0,1,-1125.61,-244.222)">
        <g id="parry">
            <g id="border" transform="matrix(1,0,0,1,495,-384.765)">
                <path d="M680.781,651.97L700.008,632.743L719.235,651.97" style="fill:none;stroke:#92d2ff;stroke-width:4.17px;"/>
                <g transform="matrix(6.12323e-17,1,-1,6.12323e-17,1398.4,-1.61976)">
                    <path d="M680.781,651.97L700.008,632.743L719.235,651.97" style="fill:none;stroke:#92d2ff;stroke-width:4.17px;"/>
                </g>
                <g transform="matrix(-1,1.22465e-16,-1.22465e-16,-1,1400.02,1396.78)">
                    <path d="M680.781,651.97L700.008,632.743L719.235,651.97" style="fill:none;stroke:#92d2ff;stroke-width:4.17px;"/>
                </g>
                <g transform="matrix(6.12323e-17,-1,1,6.12323e-17,1.61976,1398.4)">
                    <path d="M680.781,651.97L700.008,632.743L719.235,651.97" style="fill:none;stroke:#92d2ff;stroke-width:4.17px;"/>
                </g>
                <g transform="matrix(0.277399,0,0,0.277399,576.703,514.873)">
                    <rect x="277.174" y="494.224" width="334.667" height="334.667" style="fill:none;stroke:#92d2ff;stroke-width:15.02px;"/>
                </g>
            </g>
            <g id="swords" transform="matrix(0.100879,0,0,0.100879,1194.53,313.623)">
                <g transform="matrix(1,0,0,1,-256,-256)">
                    <clipPath id="_clip1">
                        <rect x="0" y="0" width="512" height="512"/>
                    </clipPath>
                    <g clip-path="url(#_clip1)">
                        <path d="M309.37,389.38L389.37,309.38L93.33,13.33L15.22,0.14C6.42,-1.12 -1.12,6.42 0.14,15.22L13.34,93.33L309.37,389.38ZM507.31,462.06L448,402.75L479.64,343.72C482.97,337.5 481.84,329.84 476.85,324.85L459.31,307.32C453.06,301.07 442.93,301.07 436.68,307.32L307.31,436.69C301.06,442.94 301.06,453.07 307.31,459.31L324.84,476.85C329.813,481.824 337.51,482.962 343.71,479.64L402.75,448L462.06,507.31C468.31,513.56 478.44,513.56 484.69,507.31L507.31,484.69C513.56,478.44 513.56,468.31 507.31,462.06ZM498.67,93.33L511.87,15.22C513.13,6.42 505.58,-1.12 496.79,0.14L418.68,13.34L278.63,153.37L358.63,233.37L498.67,93.33ZM153.37,278.63L100,332L75.31,307.31C69.06,301.06 58.93,301.06 52.69,307.31L35.15,324.84C30.176,329.813 29.038,337.51 32.36,343.71L64,402.75L4.69,462.06C-1.56,468.31 -1.56,478.44 4.69,484.69L27.31,507.31C33.56,513.56 43.69,513.56 49.94,507.31L109.25,448L168.28,479.64C174.5,482.97 182.16,481.84 187.15,476.85L204.68,459.31C210.93,453.06 210.93,442.93 204.68,436.69L180,412L233.37,358.63L153.37,278.63Z" style="fill-rule:nonzero;"/>
                    </g>
                </g>
            </g>
        </g>
    </g>
</svg>
